<svg width="24" height="25" viewBox="0 0 24 25" fill="none" xmlns="http://www.w3.org/2000/svg">
<rect width="24" height="24" transform="translate(0 0.666992)" fill="white"/>
<path d="M20.8401 5.27686C20.3294 4.76587 19.7229 4.36051 19.0555 4.08395C18.388 3.80739 17.6726 3.66504 16.9501 3.66504C16.2276 3.66504 15.5122 3.80739 14.8448 4.08395C14.1773 4.36051 13.5709 4.76587 13.0601 5.27686L12.0001 6.33686L10.9401 5.27686C9.90843 4.24517 8.50915 3.66557 7.05012 3.66557C5.59109 3.66557 4.19181 4.24517 3.16012 5.27686C2.12843 6.30856 1.54883 7.70783 1.54883 9.16686C1.54883 10.6259 2.12843 12.0252 3.16012 13.0569L4.22012 14.1169L12.0001 21.8969L19.7801 14.1169L20.8401 13.0569C21.3511 12.5461 21.7565 11.9397 22.033 11.2722C22.3096 10.6048 22.4519 9.88935 22.4519 9.16686C22.4519 8.44438 22.3096 7.72897 22.033 7.06151C21.7565 6.39405 21.3511 5.78762 20.8401 5.27686Z" fill="#2F41AA"/>
</svg>
