<svg width="24" height="25" viewBox="0 0 24 25" fill="none" xmlns="http://www.w3.org/2000/svg">
<path d="M9 22.667C9.55228 22.667 10 22.2193 10 21.667C10 21.1147 9.55228 20.667 9 20.667C8.44772 20.667 8 21.1147 8 21.667C8 22.2193 8.44772 22.667 9 22.667Z" stroke="#2F41AA" stroke-width="2" stroke-linecap="round" stroke-linejoin="round"/>
<path d="M20 22.667C20.5523 22.667 21 22.2193 21 21.667C21 21.1147 20.5523 20.667 20 20.667C19.4477 20.667 19 21.1147 19 21.667C19 22.2193 19.4477 22.667 20 22.667Z" stroke="#2F41AA" stroke-width="2" stroke-linecap="round" stroke-linejoin="round"/>
<path d="M1 1.66699H5L7.68 15.057C7.77144 15.5174 8.02191 15.931 8.38755 16.2253C8.75318 16.5196 9.2107 16.676 9.68 16.667H19.4C19.8693 16.676 20.3268 16.5196 20.6925 16.2253C21.0581 15.931 21.3086 15.5174 21.4 15.057L22.2 10.862L23 6.66699H6M5 1.66699L6.00075 6.66699M6.00075 6.66699L7.68 15.057L8.38755 16.2253M6.00075 6.66699H23L22.2 10.862M6.00075 6.66699H6M9.68 16.667H19.4C19.8693 16.676 20.3268 16.5196 20.6925 16.2253" stroke="#2F41AA" stroke-linecap="round" stroke-linejoin="round"/>
<path d="M8.38755 16.2253C8.02191 15.931 7.77144 15.5174 7.68 15.057L6 6.66699H23L22.2 10.862L21.4 15.057C21.3086 15.5174 21.0581 15.931 20.6925 16.2253C20.3268 16.5196 19.8693 16.676 19.4 16.667H9.68C9.2107 16.676 8.75318 16.5196 8.38755 16.2253Z" fill="#2F41AA"/>
<path d="M7.68 15.057C7.77144 15.5174 8.02191 15.931 8.38755 16.2253M7.68 15.057L6 6.66699H23L22.2 10.862L21.4 15.057C21.3086 15.5174 21.0581 15.931 20.6925 16.2253C20.3268 16.5196 19.8693 16.676 19.4 16.667H9.68C9.2107 16.676 8.75318 16.5196 8.38755 16.2253M7.68 15.057L8.38755 16.2253" stroke="#2F41AA" stroke-linecap="round" stroke-linejoin="round"/>
</svg>
