<svg width="85" height="16" viewBox="0 0 85 16" fill="none" xmlns="http://www.w3.org/2000/svg">
<path d="M40.8824 0L42.7617 5.58453H47.9834L43.7243 9.00852L45.6204 14.8878L40.8824 11.215L36.1446 14.8878L38.0407 9.00852L33.7814 5.58453H39.0031L40.8824 0Z" fill="#BDC3C7"/>
<path d="M57.3346 0L59.2138 5.58453H64.4355L60.1765 9.00852L62.0726 14.8878L57.3346 11.215L52.5968 14.8878L54.4929 9.00852L50.2336 5.58453H55.4553L57.3346 0Z" fill="#BDC3C7"/>
<path d="M73.7857 0L75.665 5.58453H80.8867L76.6276 9.00852L78.5238 14.8878L73.7857 11.215L69.0479 14.8878L70.9441 9.00852L66.6848 5.58453H71.9065L73.7857 0Z" fill="#BDC3C7"/>
<path d="M80.8867 5.58453H75.665L73.7857 11.215L78.5238 14.8878L76.6276 9.00852L80.8867 5.58453Z" fill="white" stroke="#BDC3C7" stroke-width="0.2"/>
<path d="M7.10098 0L5.2217 5.58453H0L4.25908 9.00852L2.36297 14.8878L7.10098 11.215L11.8388 14.8878L9.94267 9.00852L14.202 5.58453H8.98027L7.10098 0Z" fill="#BDC3C7"/>
<path d="M23.5522 0L21.6729 5.58453H16.4512L20.7103 9.00852L18.8141 14.8878L23.5522 11.215L28.29 14.8878L26.3938 9.00852L30.6531 5.58453H25.4314L23.5522 0Z" fill="#BDC3C7"/>
</svg>
